<mxfile host="Electron" modified="2023-11-22T20:19:53.193Z" agent="Mozilla/5.0 (Windows NT 10.0; Win64; x64) AppleWebKit/537.36 (KHTML, like Gecko) draw.io/22.1.2 Chrome/114.0.5735.289 Electron/25.9.4 Safari/537.36" etag="UZLF_wnSoJCTh_2OswJl" version="22.1.2" type="device" pages="2">
  <diagram id="qFJSgwTh5OkGIo4jmMiy" name="Local">
    <mxGraphModel dx="864" dy="516" grid="0" gridSize="10" guides="1" tooltips="1" connect="1" arrows="1" fold="1" page="1" pageScale="1" pageWidth="850" pageHeight="1100" math="0" shadow="0">
      <root>
        <mxCell id="0" />
        <mxCell id="1" parent="0" />
        <mxCell id="ZNUYGTVJwh82kPwcsdyk-29" style="edgeStyle=orthogonalEdgeStyle;rounded=0;orthogonalLoop=1;jettySize=auto;html=1;" parent="1" source="ZNUYGTVJwh82kPwcsdyk-15" target="ZNUYGTVJwh82kPwcsdyk-20" edge="1">
          <mxGeometry relative="1" as="geometry" />
        </mxCell>
        <mxCell id="ZNUYGTVJwh82kPwcsdyk-15" value="" style="rounded=0;whiteSpace=wrap;html=1;fontColor=default;fillColor=none;" parent="1" vertex="1">
          <mxGeometry x="397" y="105" width="120" height="280" as="geometry" />
        </mxCell>
        <mxCell id="ZNUYGTVJwh82kPwcsdyk-14" style="edgeStyle=orthogonalEdgeStyle;rounded=0;orthogonalLoop=1;jettySize=auto;html=1;" parent="1" source="ZNUYGTVJwh82kPwcsdyk-2" target="ZNUYGTVJwh82kPwcsdyk-13" edge="1">
          <mxGeometry relative="1" as="geometry" />
        </mxCell>
        <mxCell id="ZNUYGTVJwh82kPwcsdyk-2" value="" style="sketch=0;outlineConnect=0;fontColor=#232F3E;gradientColor=none;fillColor=#01A88D;strokeColor=none;dashed=0;verticalLabelPosition=bottom;verticalAlign=top;align=center;html=1;fontSize=12;fontStyle=0;aspect=fixed;shape=mxgraph.aws4.transfer_for_ftp_resource;" parent="1" vertex="1">
          <mxGeometry x="273" y="200" width="76" height="78" as="geometry" />
        </mxCell>
        <mxCell id="ZNUYGTVJwh82kPwcsdyk-12" style="edgeStyle=orthogonalEdgeStyle;rounded=0;orthogonalLoop=1;jettySize=auto;html=1;" parent="1" source="ZNUYGTVJwh82kPwcsdyk-3" target="ZNUYGTVJwh82kPwcsdyk-2" edge="1">
          <mxGeometry relative="1" as="geometry">
            <Array as="points">
              <mxPoint x="212" y="88" />
              <mxPoint x="212" y="239" />
            </Array>
          </mxGeometry>
        </mxCell>
        <mxCell id="ZNUYGTVJwh82kPwcsdyk-3" value="avena" style="shape=image;verticalLabelPosition=bottom;labelBackgroundColor=default;verticalAlign=top;aspect=fixed;imageAspect=0;image=data:image/png,iVBORw0KGgoAAAANSUhEUgAAAOEAAADhCAMAAAAJbSJIAAAAz1BMVEX///8AplHm5+jm5uYAAABtbnEAokUApErp6Ou51cR+wJX6+vrx8fEAqlP8//4gr2NoaWx/gIKkpacAYzAArlUAok8Al0oAkUcAiUMAaTMAdTljZGcAbzYAo1AAQyEAHw8ALRYACQQAWCsASCMAOBsAgD4ATiYAHQ4AFAoAIxEAjkUANRoAgj8AViq7u7yys7Tk9O2h17ZRvICM0KjX7+Kz4MZDtnSHiIqXmJrHx8jT09SFhoh0xpWHz6W95M7H6NVov4kAFwua17Xv+vRIuHi4rHnRAAAIsklEQVR4nO2deXvaOBDGQ2rj7jZKaLHNTbgDSWjI2e223aZ0v/9nWpnDGhnDSo5Hknn0/pUamUc/ZjTSKx89ObGysrKysrKysjoyneWqz3d3d58/6GaC+nCaq95/bFUqLfedbiygfAFPzz66VBWDEHMO4YaQ6r1usq2wCCvumW60jdBiWPloCCIaIUU0o6LiEVLEc910kRAJ3coXE6KISehW/tKNd4JMaAQiLqHb0o+ITOi2Ph07odu6O3ZC7Yj4hG7r87ETuq2vx07otv4+dkKtiGoIdSIqInT1mX5lhNoQlRFqM/3qYqgLUR2hLtOvkFATokpCt/JNA6JSQrfy5dgJdZh+xYQaTL9qQvWmXzmhckesnlA1ogZCxaZfB6Fa06+FUCmiHkKVjlgToVtRhqiL0K2ocsTaCJUh6iN03dNjJ1Rk+nXGsOKqsIs6CdWYfq2ESky/XkIVpl8zoQLTr5sQ3/RrJ0Q3/foJsRENIEQ2/SYQ4iIaQYi6r2EGIabpN4QQ0fSbQoiHaAwh2r6GOYRuBccRG0SIhGgU4bdjJ8QJYu6E3yrZCVsY2295E57etY6d8PRLq5JVBSE8/fopszC2FxEI3yCMfSlLqFaW0BJaQv2yhJbQEuqXJbSEllC/LKEltIT6hUL43iRhEC7+MEmLnOme7h8uSp5XNkWeV7p4uH/KC2+xLEVfaZroD06WeYRy8d0r64bZK8/7/lbG80cDowfleY9vej/R04W58duqfPGG8fhsPl+k8nNWwMdiAFLEx2yAP4oCSBF/HHUEI2WJ4j9FAqSI/8gCLnR3WVqyE+OD2dPgrrwHOcCCzBNQknOG7u5mkgzgffFCSIN4L0F4obu3mXQhDviziCGkQfwpTPi9aIV0Le+7KOB5MZOUpqmokVoUM0lpmorO+oWspJGEq+mPYg5DOhBFLcZrYQlfBQlfdPc0s14ECYtaSoUJCztZCE8XltBgKSAkuTTJLFRCQnw/CMOw4/tkD8S6SS0MfNqGO75Vyin7PkkVHiEhnfHg0lmrV62nBIqQsD3ctHD63UYY9zqoblVLnhY0th+Fegn9cOBwmjU6ic6S6y7fxBmN103IOD7US57UjD+qCkURiZCUqs6OLm99rsl8t4nTDVbdDtiRRKQI+1WuNRKScJbSe8cZgD51eqlNpmHUhsTJ6zR4Dsb+yy+JCIWQ1FM7TzWMu0vSAel4jBBBms44EJCkDbFSg0FIavsA2dghKVm80U2EFEzjf4eQxB+x42K9wSAMfu0ndOqr/pLwQJOo3JBJeqxYko70zRZgDKWot27DFdrptA//OSNcosNqCpK0qY0QDCHau0a9Vqs3YN1ZTwjsyKQeEp+EzUvWZFUk2b/BlCifpBiEAKe9WYDAuWOVXSzZxuulDCEBO69NuIEK5j2W3F3RlV7uhOSWwdTjMug32NEA1iKWguDEqOKCctVjX86SdKyN0GczchvUeZBedACxUdYPGGJcoEbRiT6LaZymbLrvd0Q7lDshy78ePBwzXXVDrpTexItRP65Q89Wk395NU3baRGy6RyAEudbm8iia4KaTdrizKnO642BtPYLmuH5NrUiYxJlucECS1oUNV+6ErEDwroDUmyGzPGTkQM2q9V1LBNpsVqAgScUdZd6EbBheJU0BZ/+aTlKjRsgbLNBms55lkRezFSiEbLl5c3CkdC6dXfWqITwpiNcBv0gCecc1qiMMrradmBzsBJxUoCastkKjtBp2rB739n8xOmEY/+6Dwz8znCE5NdNmyDm/TBC0FTiEwkPF3+cuqnGmdmKDcRlwSRoWgpBW13SbzKLos10AmqasiN3I7M3hEf5PlkaIpHnlpGkbImAwaJqyASBqK3AI424crjQbBL82TwlkvBPgx9/Wh0kaSAAi1tJRYrZI3+CkR2vtbtIyb50RWD/csiTtCq/YMAjZfMjvr9CMG447bNN3tX5ZbwLTP4JaYwQJtws+sH6dlOI/hW0FCiH7pfu8RV1NbqNmsIok6YS3zcagO7vdolBKUFvnMcMN44r/kuFDiCGb5m65n3q7QBm1A9AIJpzPAhbvwYCvi2eOuVQI8ydk5W8Ie8LtArLhdQWLBpscmC9O2bEStxUohCXCNpXgvAz2NsYE4MJAM3Dg6kdJwJmw98UiZLtoPeYV4AKGwMjAFSaJV+NsE2bXhEjYCiRCkFejzbUYGLTVMGLzHF0YbIsN+BXAagF65ZUkbAUOIbddetns+FS1SaKHcLu0ex1dXSR+CBqB+cBP7L7OZK+mIhDyxaHXHXFWcFV/+DZXw8FgCJc2fVB/uO1XR85WIBHCLaQUrcsPmRxqwy1pCf+Z1IoNifBg9zerFRL297fpcxT8BYDDOweqCFNK/FbxcjyZfFD8UoFcw8+kbAUe4d6LM2AR4O/N5UYyTPBKo3SSol3lTu0/N5X5e6K4EyV4qXEoHUK0OxVIuBPGUWImI2HKeO3ublDAC65ytgKVMLqTpAqryfx6xx9GTaYQb1qtpZlINqyv5JNU+DboDHdfRrP4uD2YTObtcS39lqFNk2F3OBk0t5v7u/JjyfdC+O7LjM88Cdy/tLLCEvc4SUr42afjvwt6Wdg72ZeChE+FJRR9qvu37p5m1cVvQcLiPV65lsRDlgV8vjKSxDOWRU1TifdHFHK+EJ4rVkEsYpqWhetMpEK9bmAtyZcOFPCJBOGHDzcq3IOyEo/IblSg935EyvJijIciIcq+UWGl83+LM2V4L5lepXT+UpQolrMBUr0WA7H8mpGPamn4m74ieZ6oK0zVk/GZWn5566v3nksmM5ZLmd/zBRlfvLKJyUp79ZIHX6Sn5UMpeh2jQSqXSw/L3F4NGen34nn5pzl6fF5IOQkx6X4pK6f88U5OPrwzSShv2dUNxckSWkJLqF+W0BJaQv2yhJbQEuqXJbSEllC/MAhPTnVTASH99/G6sYBQQkh1ZoqQ+KysrKysrKysrLTpP27Yna2bjLREAAAAAElFTkSuQmCC;" parent="1" vertex="1">
          <mxGeometry x="30" y="30" width="75" height="75" as="geometry" />
        </mxCell>
        <mxCell id="ZNUYGTVJwh82kPwcsdyk-8" style="edgeStyle=orthogonalEdgeStyle;rounded=0;orthogonalLoop=1;jettySize=auto;html=1;" parent="1" source="ZNUYGTVJwh82kPwcsdyk-4" target="ZNUYGTVJwh82kPwcsdyk-2" edge="1">
          <mxGeometry relative="1" as="geometry">
            <mxPoint x="190" y="180" as="targetPoint" />
            <Array as="points">
              <mxPoint x="213" y="488" />
              <mxPoint x="213" y="239" />
            </Array>
          </mxGeometry>
        </mxCell>
        <mxCell id="ZNUYGTVJwh82kPwcsdyk-4" value="mijo" style="shape=image;verticalLabelPosition=bottom;labelBackgroundColor=default;verticalAlign=top;aspect=fixed;imageAspect=0;image=data:image/png,iVBORw0KGgoAAAANSUhEUgAAAOEAAADhCAMAAAAJbSJIAAAAz1BMVEX///8AplHm5+jm5uYAAABtbnEAokUApErp6Ou51cR+wJX6+vrx8fEAqlP8//4gr2NoaWx/gIKkpacAYzAArlUAok8Al0oAkUcAiUMAaTMAdTljZGcAbzYAo1AAQyEAHw8ALRYACQQAWCsASCMAOBsAgD4ATiYAHQ4AFAoAIxEAjkUANRoAgj8AViq7u7yys7Tk9O2h17ZRvICM0KjX7+Kz4MZDtnSHiIqXmJrHx8jT09SFhoh0xpWHz6W95M7H6NVov4kAFwua17Xv+vRIuHi4rHnRAAAIsklEQVR4nO2deXvaOBDGQ2rj7jZKaLHNTbgDSWjI2e223aZ0v/9nWpnDGhnDSo5Hknn0/pUamUc/ZjTSKx89ObGysrKysrKysjoyneWqz3d3d58/6GaC+nCaq95/bFUqLfedbiygfAFPzz66VBWDEHMO4YaQ6r1usq2wCCvumW60jdBiWPloCCIaIUU0o6LiEVLEc910kRAJ3coXE6KISehW/tKNd4JMaAQiLqHb0o+ITOi2Ph07odu6O3ZC7Yj4hG7r87ETuq2vx07otv4+dkKtiGoIdSIqInT1mX5lhNoQlRFqM/3qYqgLUR2hLtOvkFATokpCt/JNA6JSQrfy5dgJdZh+xYQaTL9qQvWmXzmhckesnlA1ogZCxaZfB6Fa06+FUCmiHkKVjlgToVtRhqiL0K2ocsTaCJUh6iN03dNjJ1Rk+nXGsOKqsIs6CdWYfq2ESky/XkIVpl8zoQLTr5sQ3/RrJ0Q3/foJsRENIEQ2/SYQ4iIaQYi6r2EGIabpN4QQ0fSbQoiHaAwh2r6GOYRuBccRG0SIhGgU4bdjJ8QJYu6E3yrZCVsY2295E57etY6d8PRLq5JVBSE8/fopszC2FxEI3yCMfSlLqFaW0BJaQv2yhJbQEuqXJbSEllC/LKEltIT6hUL43iRhEC7+MEmLnOme7h8uSp5XNkWeV7p4uH/KC2+xLEVfaZroD06WeYRy8d0r64bZK8/7/lbG80cDowfleY9vej/R04W58duqfPGG8fhsPl+k8nNWwMdiAFLEx2yAP4oCSBF/HHUEI2WJ4j9FAqSI/8gCLnR3WVqyE+OD2dPgrrwHOcCCzBNQknOG7u5mkgzgffFCSIN4L0F4obu3mXQhDviziCGkQfwpTPi9aIV0Le+7KOB5MZOUpqmokVoUM0lpmorO+oWspJGEq+mPYg5DOhBFLcZrYQlfBQlfdPc0s14ECYtaSoUJCztZCE8XltBgKSAkuTTJLFRCQnw/CMOw4/tkD8S6SS0MfNqGO75Vyin7PkkVHiEhnfHg0lmrV62nBIqQsD3ctHD63UYY9zqoblVLnhY0th+Fegn9cOBwmjU6ic6S6y7fxBmN103IOD7US57UjD+qCkURiZCUqs6OLm99rsl8t4nTDVbdDtiRRKQI+1WuNRKScJbSe8cZgD51eqlNpmHUhsTJ6zR4Dsb+yy+JCIWQ1FM7TzWMu0vSAel4jBBBms44EJCkDbFSg0FIavsA2dghKVm80U2EFEzjf4eQxB+x42K9wSAMfu0ndOqr/pLwQJOo3JBJeqxYko70zRZgDKWot27DFdrptA//OSNcosNqCpK0qY0QDCHau0a9Vqs3YN1ZTwjsyKQeEp+EzUvWZFUk2b/BlCifpBiEAKe9WYDAuWOVXSzZxuulDCEBO69NuIEK5j2W3F3RlV7uhOSWwdTjMug32NEA1iKWguDEqOKCctVjX86SdKyN0GczchvUeZBedACxUdYPGGJcoEbRiT6LaZymbLrvd0Q7lDshy78ePBwzXXVDrpTexItRP65Q89Wk395NU3baRGy6RyAEudbm8iia4KaTdrizKnO642BtPYLmuH5NrUiYxJlucECS1oUNV+6ErEDwroDUmyGzPGTkQM2q9V1LBNpsVqAgScUdZd6EbBheJU0BZ/+aTlKjRsgbLNBms55lkRezFSiEbLl5c3CkdC6dXfWqITwpiNcBv0gCecc1qiMMrradmBzsBJxUoCastkKjtBp2rB739n8xOmEY/+6Dwz8znCE5NdNmyDm/TBC0FTiEwkPF3+cuqnGmdmKDcRlwSRoWgpBW13SbzKLos10AmqasiN3I7M3hEf5PlkaIpHnlpGkbImAwaJqyASBqK3AI424crjQbBL82TwlkvBPgx9/Wh0kaSAAi1tJRYrZI3+CkR2vtbtIyb50RWD/csiTtCq/YMAjZfMjvr9CMG447bNN3tX5ZbwLTP4JaYwQJtws+sH6dlOI/hW0FCiH7pfu8RV1NbqNmsIok6YS3zcagO7vdolBKUFvnMcMN44r/kuFDiCGb5m65n3q7QBm1A9AIJpzPAhbvwYCvi2eOuVQI8ydk5W8Ie8LtArLhdQWLBpscmC9O2bEStxUohCXCNpXgvAz2NsYE4MJAM3Dg6kdJwJmw98UiZLtoPeYV4AKGwMjAFSaJV+NsE2bXhEjYCiRCkFejzbUYGLTVMGLzHF0YbIsN+BXAagF65ZUkbAUOIbddetns+FS1SaKHcLu0ex1dXSR+CBqB+cBP7L7OZK+mIhDyxaHXHXFWcFV/+DZXw8FgCJc2fVB/uO1XR85WIBHCLaQUrcsPmRxqwy1pCf+Z1IoNifBg9zerFRL297fpcxT8BYDDOweqCFNK/FbxcjyZfFD8UoFcw8+kbAUe4d6LM2AR4O/N5UYyTPBKo3SSol3lTu0/N5X5e6K4EyV4qXEoHUK0OxVIuBPGUWImI2HKeO3ublDAC65ytgKVMLqTpAqryfx6xx9GTaYQb1qtpZlINqyv5JNU+DboDHdfRrP4uD2YTObtcS39lqFNk2F3OBk0t5v7u/JjyfdC+O7LjM88Cdy/tLLCEvc4SUr42afjvwt6Wdg72ZeChE+FJRR9qvu37p5m1cVvQcLiPV65lsRDlgV8vjKSxDOWRU1TifdHFHK+EJ4rVkEsYpqWhetMpEK9bmAtyZcOFPCJBOGHDzcq3IOyEo/IblSg935EyvJijIciIcq+UWGl83+LM2V4L5lepXT+UpQolrMBUr0WA7H8mpGPamn4m74ieZ6oK0zVk/GZWn5566v3nksmM5ZLmd/zBRlfvLKJyUp79ZIHX6Sn5UMpeh2jQSqXSw/L3F4NGen34nn5pzl6fF5IOQkx6X4pK6f88U5OPrwzSShv2dUNxckSWkJLqF+W0BJaQv2yhJbQEuqXJbSEllC/MAhPTnVTASH99/G6sYBQQkh1ZoqQ+KysrKysrKysrLTpP27Yna2bjLREAAAAAElFTkSuQmCC;" parent="1" vertex="1">
          <mxGeometry x="30" y="450" width="75" height="75" as="geometry" />
        </mxCell>
        <mxCell id="ZNUYGTVJwh82kPwcsdyk-11" style="edgeStyle=orthogonalEdgeStyle;rounded=0;orthogonalLoop=1;jettySize=auto;html=1;" parent="1" source="ZNUYGTVJwh82kPwcsdyk-5" target="ZNUYGTVJwh82kPwcsdyk-2" edge="1">
          <mxGeometry relative="1" as="geometry">
            <Array as="points">
              <mxPoint x="210" y="188" />
              <mxPoint x="210" y="239" />
            </Array>
          </mxGeometry>
        </mxCell>
        <mxCell id="ZNUYGTVJwh82kPwcsdyk-5" value="girasol" style="shape=image;verticalLabelPosition=bottom;labelBackgroundColor=default;verticalAlign=top;aspect=fixed;imageAspect=0;image=data:image/png,iVBORw0KGgoAAAANSUhEUgAAAOEAAADhCAMAAAAJbSJIAAAAz1BMVEX///8AplHm5+jm5uYAAABtbnEAokUApErp6Ou51cR+wJX6+vrx8fEAqlP8//4gr2NoaWx/gIKkpacAYzAArlUAok8Al0oAkUcAiUMAaTMAdTljZGcAbzYAo1AAQyEAHw8ALRYACQQAWCsASCMAOBsAgD4ATiYAHQ4AFAoAIxEAjkUANRoAgj8AViq7u7yys7Tk9O2h17ZRvICM0KjX7+Kz4MZDtnSHiIqXmJrHx8jT09SFhoh0xpWHz6W95M7H6NVov4kAFwua17Xv+vRIuHi4rHnRAAAIsklEQVR4nO2deXvaOBDGQ2rj7jZKaLHNTbgDSWjI2e223aZ0v/9nWpnDGhnDSo5Hknn0/pUamUc/ZjTSKx89ObGysrKysrKysjoyneWqz3d3d58/6GaC+nCaq95/bFUqLfedbiygfAFPzz66VBWDEHMO4YaQ6r1usq2wCCvumW60jdBiWPloCCIaIUU0o6LiEVLEc910kRAJ3coXE6KISehW/tKNd4JMaAQiLqHb0o+ITOi2Ph07odu6O3ZC7Yj4hG7r87ETuq2vx07otv4+dkKtiGoIdSIqInT1mX5lhNoQlRFqM/3qYqgLUR2hLtOvkFATokpCt/JNA6JSQrfy5dgJdZh+xYQaTL9qQvWmXzmhckesnlA1ogZCxaZfB6Fa06+FUCmiHkKVjlgToVtRhqiL0K2ocsTaCJUh6iN03dNjJ1Rk+nXGsOKqsIs6CdWYfq2ESky/XkIVpl8zoQLTr5sQ3/RrJ0Q3/foJsRENIEQ2/SYQ4iIaQYi6r2EGIabpN4QQ0fSbQoiHaAwh2r6GOYRuBccRG0SIhGgU4bdjJ8QJYu6E3yrZCVsY2295E57etY6d8PRLq5JVBSE8/fopszC2FxEI3yCMfSlLqFaW0BJaQv2yhJbQEuqXJbSEllC/LKEltIT6hUL43iRhEC7+MEmLnOme7h8uSp5XNkWeV7p4uH/KC2+xLEVfaZroD06WeYRy8d0r64bZK8/7/lbG80cDowfleY9vej/R04W58duqfPGG8fhsPl+k8nNWwMdiAFLEx2yAP4oCSBF/HHUEI2WJ4j9FAqSI/8gCLnR3WVqyE+OD2dPgrrwHOcCCzBNQknOG7u5mkgzgffFCSIN4L0F4obu3mXQhDviziCGkQfwpTPi9aIV0Le+7KOB5MZOUpqmokVoUM0lpmorO+oWspJGEq+mPYg5DOhBFLcZrYQlfBQlfdPc0s14ECYtaSoUJCztZCE8XltBgKSAkuTTJLFRCQnw/CMOw4/tkD8S6SS0MfNqGO75Vyin7PkkVHiEhnfHg0lmrV62nBIqQsD3ctHD63UYY9zqoblVLnhY0th+Fegn9cOBwmjU6ic6S6y7fxBmN103IOD7US57UjD+qCkURiZCUqs6OLm99rsl8t4nTDVbdDtiRRKQI+1WuNRKScJbSe8cZgD51eqlNpmHUhsTJ6zR4Dsb+yy+JCIWQ1FM7TzWMu0vSAel4jBBBms44EJCkDbFSg0FIavsA2dghKVm80U2EFEzjf4eQxB+x42K9wSAMfu0ndOqr/pLwQJOo3JBJeqxYko70zRZgDKWot27DFdrptA//OSNcosNqCpK0qY0QDCHau0a9Vqs3YN1ZTwjsyKQeEp+EzUvWZFUk2b/BlCifpBiEAKe9WYDAuWOVXSzZxuulDCEBO69NuIEK5j2W3F3RlV7uhOSWwdTjMug32NEA1iKWguDEqOKCctVjX86SdKyN0GczchvUeZBedACxUdYPGGJcoEbRiT6LaZymbLrvd0Q7lDshy78ePBwzXXVDrpTexItRP65Q89Wk395NU3baRGy6RyAEudbm8iia4KaTdrizKnO642BtPYLmuH5NrUiYxJlucECS1oUNV+6ErEDwroDUmyGzPGTkQM2q9V1LBNpsVqAgScUdZd6EbBheJU0BZ/+aTlKjRsgbLNBms55lkRezFSiEbLl5c3CkdC6dXfWqITwpiNcBv0gCecc1qiMMrradmBzsBJxUoCastkKjtBp2rB739n8xOmEY/+6Dwz8znCE5NdNmyDm/TBC0FTiEwkPF3+cuqnGmdmKDcRlwSRoWgpBW13SbzKLos10AmqasiN3I7M3hEf5PlkaIpHnlpGkbImAwaJqyASBqK3AI424crjQbBL82TwlkvBPgx9/Wh0kaSAAi1tJRYrZI3+CkR2vtbtIyb50RWD/csiTtCq/YMAjZfMjvr9CMG447bNN3tX5ZbwLTP4JaYwQJtws+sH6dlOI/hW0FCiH7pfu8RV1NbqNmsIok6YS3zcagO7vdolBKUFvnMcMN44r/kuFDiCGb5m65n3q7QBm1A9AIJpzPAhbvwYCvi2eOuVQI8ydk5W8Ie8LtArLhdQWLBpscmC9O2bEStxUohCXCNpXgvAz2NsYE4MJAM3Dg6kdJwJmw98UiZLtoPeYV4AKGwMjAFSaJV+NsE2bXhEjYCiRCkFejzbUYGLTVMGLzHF0YbIsN+BXAagF65ZUkbAUOIbddetns+FS1SaKHcLu0ex1dXSR+CBqB+cBP7L7OZK+mIhDyxaHXHXFWcFV/+DZXw8FgCJc2fVB/uO1XR85WIBHCLaQUrcsPmRxqwy1pCf+Z1IoNifBg9zerFRL297fpcxT8BYDDOweqCFNK/FbxcjyZfFD8UoFcw8+kbAUe4d6LM2AR4O/N5UYyTPBKo3SSol3lTu0/N5X5e6K4EyV4qXEoHUK0OxVIuBPGUWImI2HKeO3ublDAC65ytgKVMLqTpAqryfx6xx9GTaYQb1qtpZlINqyv5JNU+DboDHdfRrP4uD2YTObtcS39lqFNk2F3OBk0t5v7u/JjyfdC+O7LjM88Cdy/tLLCEvc4SUr42afjvwt6Wdg72ZeChE+FJRR9qvu37p5m1cVvQcLiPV65lsRDlgV8vjKSxDOWRU1TifdHFHK+EJ4rVkEsYpqWhetMpEK9bmAtyZcOFPCJBOGHDzcq3IOyEo/IblSg935EyvJijIciIcq+UWGl83+LM2V4L5lepXT+UpQolrMBUr0WA7H8mpGPamn4m74ieZ6oK0zVk/GZWn5566v3nksmM5ZLmd/zBRlfvLKJyUp79ZIHX6Sn5UMpeh2jQSqXSw/L3F4NGen34nn5pzl6fF5IOQkx6X4pK6f88U5OPrwzSShv2dUNxckSWkJLqF+W0BJaQv2yhJbQEuqXJbSEllC/MAhPTnVTASH99/G6sYBQQkh1ZoqQ+KysrKysrKysrLTpP27Yna2bjLREAAAAAElFTkSuQmCC;" parent="1" vertex="1">
          <mxGeometry x="30" y="133.25" width="75" height="75" as="geometry" />
        </mxCell>
        <mxCell id="ZNUYGTVJwh82kPwcsdyk-10" style="edgeStyle=orthogonalEdgeStyle;rounded=0;orthogonalLoop=1;jettySize=auto;html=1;" parent="1" source="ZNUYGTVJwh82kPwcsdyk-6" target="ZNUYGTVJwh82kPwcsdyk-2" edge="1">
          <mxGeometry relative="1" as="geometry">
            <Array as="points">
              <mxPoint x="212" y="288" />
              <mxPoint x="212" y="239" />
            </Array>
          </mxGeometry>
        </mxCell>
        <mxCell id="ZNUYGTVJwh82kPwcsdyk-6" value="maiz" style="shape=image;verticalLabelPosition=bottom;labelBackgroundColor=default;verticalAlign=top;aspect=fixed;imageAspect=0;image=data:image/png,iVBORw0KGgoAAAANSUhEUgAAAOEAAADhCAMAAAAJbSJIAAAAz1BMVEX///8AplHm5+jm5uYAAABtbnEAokUApErp6Ou51cR+wJX6+vrx8fEAqlP8//4gr2NoaWx/gIKkpacAYzAArlUAok8Al0oAkUcAiUMAaTMAdTljZGcAbzYAo1AAQyEAHw8ALRYACQQAWCsASCMAOBsAgD4ATiYAHQ4AFAoAIxEAjkUANRoAgj8AViq7u7yys7Tk9O2h17ZRvICM0KjX7+Kz4MZDtnSHiIqXmJrHx8jT09SFhoh0xpWHz6W95M7H6NVov4kAFwua17Xv+vRIuHi4rHnRAAAIsklEQVR4nO2deXvaOBDGQ2rj7jZKaLHNTbgDSWjI2e223aZ0v/9nWpnDGhnDSo5Hknn0/pUamUc/ZjTSKx89ObGysrKysrKysjoyneWqz3d3d58/6GaC+nCaq95/bFUqLfedbiygfAFPzz66VBWDEHMO4YaQ6r1usq2wCCvumW60jdBiWPloCCIaIUU0o6LiEVLEc910kRAJ3coXE6KISehW/tKNd4JMaAQiLqHb0o+ITOi2Ph07odu6O3ZC7Yj4hG7r87ETuq2vx07otv4+dkKtiGoIdSIqInT1mX5lhNoQlRFqM/3qYqgLUR2hLtOvkFATokpCt/JNA6JSQrfy5dgJdZh+xYQaTL9qQvWmXzmhckesnlA1ogZCxaZfB6Fa06+FUCmiHkKVjlgToVtRhqiL0K2ocsTaCJUh6iN03dNjJ1Rk+nXGsOKqsIs6CdWYfq2ESky/XkIVpl8zoQLTr5sQ3/RrJ0Q3/foJsRENIEQ2/SYQ4iIaQYi6r2EGIabpN4QQ0fSbQoiHaAwh2r6GOYRuBccRG0SIhGgU4bdjJ8QJYu6E3yrZCVsY2295E57etY6d8PRLq5JVBSE8/fopszC2FxEI3yCMfSlLqFaW0BJaQv2yhJbQEuqXJbSEllC/LKEltIT6hUL43iRhEC7+MEmLnOme7h8uSp5XNkWeV7p4uH/KC2+xLEVfaZroD06WeYRy8d0r64bZK8/7/lbG80cDowfleY9vej/R04W58duqfPGG8fhsPl+k8nNWwMdiAFLEx2yAP4oCSBF/HHUEI2WJ4j9FAqSI/8gCLnR3WVqyE+OD2dPgrrwHOcCCzBNQknOG7u5mkgzgffFCSIN4L0F4obu3mXQhDviziCGkQfwpTPi9aIV0Le+7KOB5MZOUpqmokVoUM0lpmorO+oWspJGEq+mPYg5DOhBFLcZrYQlfBQlfdPc0s14ECYtaSoUJCztZCE8XltBgKSAkuTTJLFRCQnw/CMOw4/tkD8S6SS0MfNqGO75Vyin7PkkVHiEhnfHg0lmrV62nBIqQsD3ctHD63UYY9zqoblVLnhY0th+Fegn9cOBwmjU6ic6S6y7fxBmN103IOD7US57UjD+qCkURiZCUqs6OLm99rsl8t4nTDVbdDtiRRKQI+1WuNRKScJbSe8cZgD51eqlNpmHUhsTJ6zR4Dsb+yy+JCIWQ1FM7TzWMu0vSAel4jBBBms44EJCkDbFSg0FIavsA2dghKVm80U2EFEzjf4eQxB+x42K9wSAMfu0ndOqr/pLwQJOo3JBJeqxYko70zRZgDKWot27DFdrptA//OSNcosNqCpK0qY0QDCHau0a9Vqs3YN1ZTwjsyKQeEp+EzUvWZFUk2b/BlCifpBiEAKe9WYDAuWOVXSzZxuulDCEBO69NuIEK5j2W3F3RlV7uhOSWwdTjMug32NEA1iKWguDEqOKCctVjX86SdKyN0GczchvUeZBedACxUdYPGGJcoEbRiT6LaZymbLrvd0Q7lDshy78ePBwzXXVDrpTexItRP65Q89Wk395NU3baRGy6RyAEudbm8iia4KaTdrizKnO642BtPYLmuH5NrUiYxJlucECS1oUNV+6ErEDwroDUmyGzPGTkQM2q9V1LBNpsVqAgScUdZd6EbBheJU0BZ/+aTlKjRsgbLNBms55lkRezFSiEbLl5c3CkdC6dXfWqITwpiNcBv0gCecc1qiMMrradmBzsBJxUoCastkKjtBp2rB739n8xOmEY/+6Dwz8znCE5NdNmyDm/TBC0FTiEwkPF3+cuqnGmdmKDcRlwSRoWgpBW13SbzKLos10AmqasiN3I7M3hEf5PlkaIpHnlpGkbImAwaJqyASBqK3AI424crjQbBL82TwlkvBPgx9/Wh0kaSAAi1tJRYrZI3+CkR2vtbtIyb50RWD/csiTtCq/YMAjZfMjvr9CMG447bNN3tX5ZbwLTP4JaYwQJtws+sH6dlOI/hW0FCiH7pfu8RV1NbqNmsIok6YS3zcagO7vdolBKUFvnMcMN44r/kuFDiCGb5m65n3q7QBm1A9AIJpzPAhbvwYCvi2eOuVQI8ydk5W8Ie8LtArLhdQWLBpscmC9O2bEStxUohCXCNpXgvAz2NsYE4MJAM3Dg6kdJwJmw98UiZLtoPeYV4AKGwMjAFSaJV+NsE2bXhEjYCiRCkFejzbUYGLTVMGLzHF0YbIsN+BXAagF65ZUkbAUOIbddetns+FS1SaKHcLu0ex1dXSR+CBqB+cBP7L7OZK+mIhDyxaHXHXFWcFV/+DZXw8FgCJc2fVB/uO1XR85WIBHCLaQUrcsPmRxqwy1pCf+Z1IoNifBg9zerFRL297fpcxT8BYDDOweqCFNK/FbxcjyZfFD8UoFcw8+kbAUe4d6LM2AR4O/N5UYyTPBKo3SSol3lTu0/N5X5e6K4EyV4qXEoHUK0OxVIuBPGUWImI2HKeO3ublDAC65ytgKVMLqTpAqryfx6xx9GTaYQb1qtpZlINqyv5JNU+DboDHdfRrP4uD2YTObtcS39lqFNk2F3OBk0t5v7u/JjyfdC+O7LjM88Cdy/tLLCEvc4SUr42afjvwt6Wdg72ZeChE+FJRR9qvu37p5m1cVvQcLiPV65lsRDlgV8vjKSxDOWRU1TifdHFHK+EJ4rVkEsYpqWhetMpEK9bmAtyZcOFPCJBOGHDzcq3IOyEo/IblSg935EyvJijIciIcq+UWGl83+LM2V4L5lepXT+UpQolrMBUr0WA7H8mpGPamn4m74ieZ6oK0zVk/GZWn5566v3nksmM5ZLmd/zBRlfvLKJyUp79ZIHX6Sn5UMpeh2jQSqXSw/L3F4NGen34nn5pzl6fF5IOQkx6X4pK6f88U5OPrwzSShv2dUNxckSWkJLqF+W0BJaQv2yhJbQEuqXJbSEllC/MAhPTnVTASH99/G6sYBQQkh1ZoqQ+KysrKysrKysrLTpP27Yna2bjLREAAAAAElFTkSuQmCC;" parent="1" vertex="1">
          <mxGeometry x="30" y="230" width="75" height="75" as="geometry" />
        </mxCell>
        <mxCell id="ZNUYGTVJwh82kPwcsdyk-9" style="edgeStyle=orthogonalEdgeStyle;rounded=0;orthogonalLoop=1;jettySize=auto;html=1;exitX=1;exitY=0.5;exitDx=0;exitDy=0;" parent="1" source="ZNUYGTVJwh82kPwcsdyk-7" target="ZNUYGTVJwh82kPwcsdyk-2" edge="1">
          <mxGeometry relative="1" as="geometry">
            <Array as="points">
              <mxPoint x="212" y="378" />
              <mxPoint x="212" y="239" />
            </Array>
          </mxGeometry>
        </mxCell>
        <mxCell id="ZNUYGTVJwh82kPwcsdyk-7" value="soja" style="shape=image;verticalLabelPosition=bottom;labelBackgroundColor=default;verticalAlign=top;aspect=fixed;imageAspect=0;image=data:image/png,iVBORw0KGgoAAAANSUhEUgAAAOEAAADhCAMAAAAJbSJIAAAAz1BMVEX///8AplHm5+jm5uYAAABtbnEAokUApErp6Ou51cR+wJX6+vrx8fEAqlP8//4gr2NoaWx/gIKkpacAYzAArlUAok8Al0oAkUcAiUMAaTMAdTljZGcAbzYAo1AAQyEAHw8ALRYACQQAWCsASCMAOBsAgD4ATiYAHQ4AFAoAIxEAjkUANRoAgj8AViq7u7yys7Tk9O2h17ZRvICM0KjX7+Kz4MZDtnSHiIqXmJrHx8jT09SFhoh0xpWHz6W95M7H6NVov4kAFwua17Xv+vRIuHi4rHnRAAAIsklEQVR4nO2deXvaOBDGQ2rj7jZKaLHNTbgDSWjI2e223aZ0v/9nWpnDGhnDSo5Hknn0/pUamUc/ZjTSKx89ObGysrKysrKysjoyneWqz3d3d58/6GaC+nCaq95/bFUqLfedbiygfAFPzz66VBWDEHMO4YaQ6r1usq2wCCvumW60jdBiWPloCCIaIUU0o6LiEVLEc910kRAJ3coXE6KISehW/tKNd4JMaAQiLqHb0o+ITOi2Ph07odu6O3ZC7Yj4hG7r87ETuq2vx07otv4+dkKtiGoIdSIqInT1mX5lhNoQlRFqM/3qYqgLUR2hLtOvkFATokpCt/JNA6JSQrfy5dgJdZh+xYQaTL9qQvWmXzmhckesnlA1ogZCxaZfB6Fa06+FUCmiHkKVjlgToVtRhqiL0K2ocsTaCJUh6iN03dNjJ1Rk+nXGsOKqsIs6CdWYfq2ESky/XkIVpl8zoQLTr5sQ3/RrJ0Q3/foJsRENIEQ2/SYQ4iIaQYi6r2EGIabpN4QQ0fSbQoiHaAwh2r6GOYRuBccRG0SIhGgU4bdjJ8QJYu6E3yrZCVsY2295E57etY6d8PRLq5JVBSE8/fopszC2FxEI3yCMfSlLqFaW0BJaQv2yhJbQEuqXJbSEllC/LKEltIT6hUL43iRhEC7+MEmLnOme7h8uSp5XNkWeV7p4uH/KC2+xLEVfaZroD06WeYRy8d0r64bZK8/7/lbG80cDowfleY9vej/R04W58duqfPGG8fhsPl+k8nNWwMdiAFLEx2yAP4oCSBF/HHUEI2WJ4j9FAqSI/8gCLnR3WVqyE+OD2dPgrrwHOcCCzBNQknOG7u5mkgzgffFCSIN4L0F4obu3mXQhDviziCGkQfwpTPi9aIV0Le+7KOB5MZOUpqmokVoUM0lpmorO+oWspJGEq+mPYg5DOhBFLcZrYQlfBQlfdPc0s14ECYtaSoUJCztZCE8XltBgKSAkuTTJLFRCQnw/CMOw4/tkD8S6SS0MfNqGO75Vyin7PkkVHiEhnfHg0lmrV62nBIqQsD3ctHD63UYY9zqoblVLnhY0th+Fegn9cOBwmjU6ic6S6y7fxBmN103IOD7US57UjD+qCkURiZCUqs6OLm99rsl8t4nTDVbdDtiRRKQI+1WuNRKScJbSe8cZgD51eqlNpmHUhsTJ6zR4Dsb+yy+JCIWQ1FM7TzWMu0vSAel4jBBBms44EJCkDbFSg0FIavsA2dghKVm80U2EFEzjf4eQxB+x42K9wSAMfu0ndOqr/pLwQJOo3JBJeqxYko70zRZgDKWot27DFdrptA//OSNcosNqCpK0qY0QDCHau0a9Vqs3YN1ZTwjsyKQeEp+EzUvWZFUk2b/BlCifpBiEAKe9WYDAuWOVXSzZxuulDCEBO69NuIEK5j2W3F3RlV7uhOSWwdTjMug32NEA1iKWguDEqOKCctVjX86SdKyN0GczchvUeZBedACxUdYPGGJcoEbRiT6LaZymbLrvd0Q7lDshy78ePBwzXXVDrpTexItRP65Q89Wk395NU3baRGy6RyAEudbm8iia4KaTdrizKnO642BtPYLmuH5NrUiYxJlucECS1oUNV+6ErEDwroDUmyGzPGTkQM2q9V1LBNpsVqAgScUdZd6EbBheJU0BZ/+aTlKjRsgbLNBms55lkRezFSiEbLl5c3CkdC6dXfWqITwpiNcBv0gCecc1qiMMrradmBzsBJxUoCastkKjtBp2rB739n8xOmEY/+6Dwz8znCE5NdNmyDm/TBC0FTiEwkPF3+cuqnGmdmKDcRlwSRoWgpBW13SbzKLos10AmqasiN3I7M3hEf5PlkaIpHnlpGkbImAwaJqyASBqK3AI424crjQbBL82TwlkvBPgx9/Wh0kaSAAi1tJRYrZI3+CkR2vtbtIyb50RWD/csiTtCq/YMAjZfMjvr9CMG447bNN3tX5ZbwLTP4JaYwQJtws+sH6dlOI/hW0FCiH7pfu8RV1NbqNmsIok6YS3zcagO7vdolBKUFvnMcMN44r/kuFDiCGb5m65n3q7QBm1A9AIJpzPAhbvwYCvi2eOuVQI8ydk5W8Ie8LtArLhdQWLBpscmC9O2bEStxUohCXCNpXgvAz2NsYE4MJAM3Dg6kdJwJmw98UiZLtoPeYV4AKGwMjAFSaJV+NsE2bXhEjYCiRCkFejzbUYGLTVMGLzHF0YbIsN+BXAagF65ZUkbAUOIbddetns+FS1SaKHcLu0ex1dXSR+CBqB+cBP7L7OZK+mIhDyxaHXHXFWcFV/+DZXw8FgCJc2fVB/uO1XR85WIBHCLaQUrcsPmRxqwy1pCf+Z1IoNifBg9zerFRL297fpcxT8BYDDOweqCFNK/FbxcjyZfFD8UoFcw8+kbAUe4d6LM2AR4O/N5UYyTPBKo3SSol3lTu0/N5X5e6K4EyV4qXEoHUK0OxVIuBPGUWImI2HKeO3ublDAC65ytgKVMLqTpAqryfx6xx9GTaYQb1qtpZlINqyv5JNU+DboDHdfRrP4uD2YTObtcS39lqFNk2F3OBk0t5v7u/JjyfdC+O7LjM88Cdy/tLLCEvc4SUr42afjvwt6Wdg72ZeChE+FJRR9qvu37p5m1cVvQcLiPV65lsRDlgV8vjKSxDOWRU1TifdHFHK+EJ4rVkEsYpqWhetMpEK9bmAtyZcOFPCJBOGHDzcq3IOyEo/IblSg935EyvJijIciIcq+UWGl83+LM2V4L5lepXT+UpQolrMBUr0WA7H8mpGPamn4m74ieZ6oK0zVk/GZWn5566v3nksmM5ZLmd/zBRlfvLKJyUp79ZIHX6Sn5UMpeh2jQSqXSw/L3F4NGen34nn5pzl6fF5IOQkx6X4pK6f88U5OPrwzSShv2dUNxckSWkJLqF+W0BJaQv2yhJbQEuqXJbSEllC/MAhPTnVTASH99/G6sYBQQkh1ZoqQ+KysrKysrKysrLTpP27Yna2bjLREAAAAAElFTkSuQmCC;" parent="1" vertex="1">
          <mxGeometry x="30" y="340" width="75" height="75" as="geometry" />
        </mxCell>
        <mxCell id="ZNUYGTVJwh82kPwcsdyk-13" value="" style="outlineConnect=0;dashed=0;verticalLabelPosition=bottom;verticalAlign=top;align=center;html=1;shape=mxgraph.aws3.bucket_with_objects;fillColor=#E05243;gradientColor=none;" parent="1" vertex="1">
          <mxGeometry x="422" y="208.25" width="60" height="61.5" as="geometry" />
        </mxCell>
        <mxCell id="ZNUYGTVJwh82kPwcsdyk-17" value="" style="shape=image;verticalLabelPosition=bottom;labelBackgroundColor=default;verticalAlign=top;aspect=fixed;imageAspect=0;image=data:image/png,iVBORw0KGgoAAAANSUhEUgAAArwAAAEsCAMAAAAW6pCvAAAAzFBMVEXUgI/axMjWY3nXqLHp1tnTUWnPSWH67O/ht7/ZUWrKN1LroK3Lqq/KU2nn4uPeqbPl19rMgY/efo/OLUrknKn56Ovw7u7QM0/sucLrvMXmoK3jlqTqr7ryztT88vTaY3jRP1rLL0vgjZziiZn7+Pn44ub////lyM3ZmaX23OHeaX7idozwxs3XkZ3ifpDML0vHLEjHLkrKMk3SSWHZcIP01NrVVm3xytLSOlX88/XJYHPhvsTv4OPXR2HbeIrSur7fw8jnp7LPcoPacoUlcQyEAAAACXBIWXMAAAsTAAALEwEAmpwYAAAaC0lEQVR4nO2di3riOLZGu5kAFfqc0zUQIAQSW+C4KjnpsmWIY6ZCpqm8/zuNbcBgSb6BsaXhX9/XXRccl0IW8pa0tfWbCYCi/FZ3AwA4FsgLlAXyAmWBvEBZIC9QFsgLlAXyAmWBvEBZIC9QFsgLlAXyAmWBvEBZIC9QFsgLlAXyAmWRTV7jcXQ3nc3Gk/uHupsCZEcqeR/Hmk4sYlNqE8uZLyYQGKQgj7zGa9exqO8ttX2CX0lvftOvu1lAXqSRd9Dt0UDZA3yTreFd3Q0D0iKJvMbt3BYQdL/uW92NA5Iih7yDKSHxXnff+9rezbLu9gEpkUJe41eCuht9rV+wFwiQQV7j07HtFHltRzPqbiOQEAnkHfzmJIm7i3yJhlkHwCGBvDcksdc9sBdTvoClfnl/15Pj3QN7u3W3E0hH7fIaDZKlbhj4Ojd1txTIRu3y/sPL7Hc39upXdTcVSEbd8g6aXMdLQ1fZWILSVrvmtgLJqFveLxbfyVqWRTh7KSV1txVIRs1CGL/iHa8/MnO06d1d9zrILWMyHTp/1ttYIBk1y/t1HjPUd9d9DV8wJrrN5em4WKsAB9Qs7yS2PkFt65/RSnC/YTHLbtSZ1dlWIBs1yzuNRQ2ULA6yGPoLYrOBw2t9TQXSUbO8i3jIO/96+GJbI/HIgZJ/IUUHRNQrr+HGulYyZV5uxLPNKCXITQcR9co7aMXCgs5P5vU2EzlQ2nqvpaFARuqV970VU3P1O3tBX4vZ63e9H5hxAFtqlneeIa85cO24vZ37GtoJpESqsEH/N3/JO2MvaSG1F2yoe8AWm2xgB2whV83DpTY/cBBdBC6RmqfK4qvDRJh7c6XbMXs7SC8DIVItUth0JhqOXa0O+l6/611U3kwgJTXLe+vEV4AdYe7N33rMXucfVTcTSEndiTnXzCqELhTzp2cf2qtjzAbM2uU1P9jkG08w42CaI+ew78WYDQTULe9PbiOFzi6zBRjrA3sp9b5V3lAgH3XLO9DYciNUbO/NQZIOpQ2ss4Ha5TX/7XH7feaiftUYHywUU+d75Q0F0lG7vMYnW3PEt1c0k2tMD7peW0cRElC7vOZTix2zUVvc986sg8ABCTqgfnnNPx3OXtoS9b2DbrQxyB+zjSpvKJAMCeQ1ZuyMg29vU7RQPPiMktMpdStvKJAMCeQ1Hxp8hRHiihYiBoudvaj/BKSQ13zXmK43sFd7FFw5iLZW+MM6VNC5cKSQN1gl5uJeook2Ww7c3ZX+BZW3E0iFHPKaVzo/YUaeRRMKbXcbOfiBA8Zsl40k8ppvc/ZYCmqT/x8IruxH9pImJnsvGlnkNV90LnKwrV+ivrffpNtKkmRceTOBREgjr/nicHMONvkluvKxs+l7Ke0gN/KSkUde47Zjc5GD85to1PY431xJCRJ0Lhl55DWNdYcrymuTqUjP+02M4Y/ZXipvJpAGieQ1ze8WW+KfincUm6/WLnDAZO/lIpW8xnfuVCu/cxX3vV7Y9Sa4DS4CqeQ1jb+48wT9uPe7yN5RuCkTVU8vGbnkNc0pby8ld0J7hzQECToXi2zyGn9xJ6z4fa8wB2fUC7pe27mtuo1AEmST1zT+yfa9fu/amYj63lsv7Ho9TPZeKNLJaxq/htyezITU8/UwPLANY7YLRT55TeMH4bdWJNjbC1Yrhqh6eplIKK/58CGwVxfZa6yDURtpVN5EIAMyymu2n5mTVAJ7V6L+1ZgGxUjIpPImAgmQUl7uJJVN3CssbTqzguJlWGe7ROSU1+w/CyKHhGIkgb3dylsI6kdSec139gy2YLFCuCF+6UfI9vCt8haC2pFVXrPdZO21KZkLD7IKNmVqyI28PKSVlz1JJex77abI3uXCtnG64AUir7zmFW+vbbsie9sLm+roei8OieU1r+Zccjq1hcVIlprtfMLeS0Nmec2vrL00qRCU4dIeciMvDanlNa+u+Y1BVBNteG9rTrPy5oF6kVte89uKm3KgZCEsRnLde6q8eaBWJJfX/KrzcW/CQWwuNmNeGLLLGz+DbWvvUFjU/wEjtgtDennNnwJ7sXsCmCrIa448Pu5toUoZUEFeY+LwM2ZYDgYqyGsad7y94kOKwUWhgry+vTaXYqZjYuziUUJe0xjzSTpI4b141JDXXM64rhfnD188ishrDphNmX4QjG2Xl47E8hqvNwdTCoMFc9Yg7SDqvXDklfep4cWyHN+ZY16p7WK67LKRVd73WYfQeAbOt/hSG7WHSIK8bOSU9+FGD/a+M+ljf1nxsJfI2XhQFVL+/EfBqWy8vIP4Ma8oi37pSCjvazA0CzVlE3e/9eJd7xCVci4a6eRt/9GJJsVYeY0FiccNn/W0EciBbPK+zK19bMBtmfjqxQIH0qqjiUAW5JK3/eEclhrh5DUWsfOCcJLVZSOTvMZtK76Mxm9WG8VWKihBgsMlI5G8D13CZD7y8g7c+FRvE+sUF4w88v7U2cKQAnnNcfycQR07Ki4YWeQdzDw261Eo70svdpHzWENbgSRIIu+Ty4YMCfL29VjQ6wiPqgCXgRzyTjzKdbtieQfPsaDXwUlAF4wM8i67Drs/OFFeYxyfbhDXHwEXgQTyvmrcSC1ZXnNEDq+gKFB2wdQvL18SJ1Xeb8PYMoW+rL7FQBLqltcYcyVF0uW98mLyIrHsgqlZ3kGXnyBLl/c9Jq+Ng4cvmHrl7WvceWvF5MWp2ZdMrfJezUmiuJAXZFGnvF/0tJgB8oIMapT3Ty9xmiFFXgzYwI765B0Ps9wVy8tMlSEz53KpS15j5mSpK5b377i8LeREXi41ybvsiqYZ2K5YJO+axJaHUfPpgqlH3uWCDxn8v2HnHkS5DbOYvE7diyygRmr54T+I3LWJO81ORh+48Z53XUPzwbEYEaXcrg552wtuisz/o/PZHzmZYcNTfBObg4pPSvA4Gn9ozflqpXs++mo1bza6Ny8nznPWIO+ywWUz+H/sjIPtlZny/hnfSeFVOVM2cXVvpb2d5+a3/s110VFyfU/AM3/dsrvyvFX36ESlR9G/47FX3UWv5BRvOeq6K88mhISH79JthOj/xv8r4q3c2cvR3XD18j4IMiD9cPeLmUde4yNe8WlVYVLZM9m859oZSqu+XYc3p+QH91K/Z3NQjbvsVQ/vQLzFkc17JIIR9JC96iYal+SQ17j9vHZIeF/BtGjwV0GLiXPdPU7gyuV9+BRsmiCt+6D12fI+6rGNFFUWmF5s5kf8/8ii5GW9J41s3hT/o8FtDcknb3+z4hP8z3m+P6YRj6LVToG8m6toprzGROtYhGZO5ocfOUtf3Bb3t2p5DX6ObN+ZZct7Z8V3AVU3XnvYBdvhj6NbYrjyuNj3S5R22GdJPnnHUb8ZPhyO2NpXrryvHx0rW9wDgW1L7xZ9ZlQsr/HBrU34fU5jsHk1U95BKx41VLg4/LJ/qobd27Skpb1+fA8UtVjv8snrxh5I1GoWrkFYprwjzUoIFCIErxHrudiAolp5Betqfps/dgpmynsb+3JK+NDvbIziNf4o0cclxNvtGbN9j1rsybT55J2zpyxa+k2x9pUn74vLdLpbX4ll9awQ/5fwEcGUrPVjbK1IyFOtvHcOP0fmzAa7l7PkbTMdLxlX1/QRYRtO9PWJ05XLG48dvJYj7+7pUCQ2L0vex4V1aG6osWV718/d8fp29Pbq8zaarKcfz9cdy7Ipc3HvI//TtFJ5//T4mGE43huQJe/3WGl0ansVHqnCyhv2bvNTDvA2Jh2+WEVZ8m7H9wXCyJLkXR+eVhp2tx23OxHXhjFe1x/XTizC8H/r5X5Tq5T3p86fgD28OxA0Q96nDtPx/qvCxnPybmPLo0b2AS+6MCwsTd5NA3uLvMs4pcj7sNj3L+G8or4YZTyelpOGflga1H9T805WVyjvq86pS70/Dq9Il3ewYCYqSJXlcgTybvR1n44IHoz7uSVQt2R5N/q697kaWIa8/fnBvIlNPC1nCdqJ6+wP6PV/dfOFDtXJ++5y7tpxd9PlNe4I0/HqVS6vCeXd2NEoWjDNeHJ7whJBpcu7aeA8zxpACfL2vZi6HwUmZB6fhwf20lWuH2118jbYiQY/Zvif+CWp8v49ZA5wrfbg9wR5t4OMQvNm/UYvcQa0dHm3Y7fbzCfx6fI+7N31H4uNgpMxffew881Vj6MqeY0ue4Alpc4fTIeQJu83JmCmtNravInybvSd5f5RPSyS1T2LvJsRf2+c8QE7Wd6lZ0fuUu+I8p0v3kHQkWfhvyp510y/G/QG3ERXirzf5pRx17mrqOnbtqVtdA7lyPVZMrpp6p5J3q2+6c+Hk+Xt7Ptd57gJeKMV9XCUtrKvr0jen+wkmR8TzQRF+5Pk/aqz7tL/rablUdvSd+kHcuRYq56mq3s2ecMWOj0tJZQ8Vd4PJ/KOT9DIy2LXx9E8BUCrkbffYn5mwRQk/1xIlPcnu9HYj5crrsybIW+4PpQ1Q7keMotKgtucTd7NClYzceL3RHnbuzkyetLa0Wdkrz3MfJRVIq/B7pzwv8HPAX9dgrzGDe8u/ah452WWvOEH0lmlTPveegmVXGM3OZ+8m/EQWSV86k+T14jmQSn5yH43k3H3YW9mBdAq5DX+YgNem2j/J7hQLG//IOsq+imsqt7yni3vZpA9T1gUeFkRO73EyuYW55TX3sxhrYTxzWnyvlrR8/60gbSxK31PbStrvqwKed+4wRqdfxVdKJR3onPPWkq9LxW0O962HPKGT2ZbEwy0X5vxRfzkO5xZ3k3vqwse7KfJ24w6zFOPCbknUdfrZlxagbzvTW6wpou7J15e49blO6xcwXzZ5JJ3uyb6zMSDTy7JDhi2X39uee2kFYST5O33oqBhdtz7u+c5Cp57GX14BfJ+shO0tJOQNc/Kq91qgoxm/49FJ8BLIKe8Gzecw9Sox0WOWDf64grk3ejrMPuFTpJ3ve94T95l8hR1vSRjdfn88rKpZH4s8z3hUkZeagmT8SmtdF1417bc8m56tt2qxeZE2vxfW4m8tmC/0EnyNqNsHMHW0KK4UdyQscvr7PI+6py7/ATvFlZeW5B3RSlp1VEZsoC8YbP9uNIIs+9FuWMpX1mRvPbmM+bu/7VT5H2Iogar8A4Onunu36AkPW44t7zLBrey5ia6x4YNwnecrr6duc3ithWRd6fvtFNM3UrlteP7hU6R93Evbwkp1ve7U05pLz08PLe8d/FnZuJEQ0i2vEGG6JkKJ2RQUN7tQ6OguhXLu9FXX4eKiLa+55X3Naqm0Slh+v3B2bWulz4hemZ539mggTopq1CZ8vrd2bzC3ROxthWV9zgqlncb/I59E2cnyPti7e42L+O91nf/fMZM73nlNRpMDq5tTVM+mlnyBjHH1VkbnNI29eQNNo8lpA3HL/Ov0+bC00FyyjuK7pU1NZuL6JupVd4JMwKjRBOsCu8vT89Z8buIRm1V/EXyhmsSRQOD7Zdym2e3f1+mvPZimm+GWbwb3b5oed91m5FXT+0415adjP/uDvOlHZ4Foby2d63nXn+IfaFNVq4n6BVLlTdIGn3VDnbYFCanvG/nCRtor0Z5f3E5uKkTKW8tUdgVfbF9XecR78KwYWWYxswTHVifRpjBEzjqCV4rUd7exq9+wzvmAxZSdMBGnTKKWUQrHjUO2EYeE/DaaalgT10n8VC2wA6vzBJLxRHJa21WqT+yMx1j34tN9Y2hDcGr5csbFJD0nDxZQTyFp8p6JdScfZFhqkxjiszQliiVbMNyNkxeiAqess1aZnf3pMjrW2jl1TdM+909f6qS19wcX3NE95tT3mUUNlglVI+bRYsUtLZFiu8O0/EOE1PBBtOU0DGci5zUfUB2qrzmQ1O8k13wvfT2oVOF8prm7bBoeGPnXx6OSqUJiq8W5jpaHs5Yaz6fvP34aM3/fTfhc9ReJxQxsDfjYGs+rv+0tXR5/Sfn3MpUI65uxfIGhTPyfcIOyCvvJApTT19i2y+w2RkVXc4n729sZbqmOGh4WOuJs5HhIpU+rbvXDciS1w/a9dSDlMM9kJPY57dief1PmJu1h46heEok/Sz0tgrQoo1AtaVEfmNGa9QWLq0Z6zlJnkgPKn1nbdmuiGx5TeMtJQvH/yZ7a+ZTWLm8/t0+C+mbOxndjYwbHl0Aa8PtbuyTXTr8bPIumKCB/BB8jIxJmGueGOwSffZ+rgYWJIe8wfeTMHIL9j7+wX0Ka5DXD9LCHcw5/c0t7+N+G9CJU7272W//Y5D1xD2XvF+Y0ZpoeeLhNn2YQzvdE7eUlEguef3v6W7IP0j8j+7wRvAAqUVeX987mjdjKP/u4f0+IPuklN7r/QbMzLHfmeQ1XGamweanUN7mSQW7dl/0KdHZrDnlDXq2Ibs2Q4ZT4YizJnmDyow5x2755fWbuXvFPmH7sEb38UdmvHgmeUfO4VsQ1FJkchqMkZadpi06vrUucsvrP0J/HJgRpHzPEiyqTd7g/c81ditQdGS8144cO2gzNDsKeO3sikjnkfdhzmTxdn7GG/n2nGfSUVF5TfNpVx08WBlIrk9eo7w+94vs3rdIuSd3b6/tHjVB9Dinkbt59hOdR96JxQQNsSle41XL99BSVl7TfH0OC35bdlKvG1CvvOGKfMaqWxF5jagkV1BEsfhKmzHed2jUzlP94SzyGk0m6OsczlxfaU7OtR6F5fXNuPvx2Z2krq7ULa9/82kntR8pVOK0HxXyDDOEC06Zja6jour+l8/zLEudRd51rJSuHwP9tbfw9TOvuorLm4P65fXHbuO0sVvB4tL7jPbgqfP8lvvn54fg+1bk3mN7FnnZqQZ9N1lrPH0MU1PH4kBe8+zyBiXnrxPXiQqW9X9w99lVwYJic51rrvPp5jA/ICgGlm9h6hzyfmF3sO/W898Xw+QZRsHfQ16zAnnN4NTuhLWiwqcB/ThIsAr3F7nrp9TB28PrTatnH87OUNLN2ewzyLu8jmc12M3NNNnTRyd5JTjMv/nMPvW9Nv6r5TXNe80R5fUVP8pqxBztQ+0ebdzdPz7wh6C3n17GrhVf7wu2h+c8heUs8r7ECvjTbYrn4ywl1qVBecVxO/vs4fr4L5c3qErl8cvGRxwiaDBTGOH2OKvX6zSDYwQntz6Tu/GPRsvp9az43rlwJ3NS7qGAM8jbYBYogj2Xy9kwLYfBf7wE29Mgb43yhhsuCBO9HXV8a1tjb7NVeGdq7A8xDYhWZIK4fHnvh7GO1+7dmu2unlycNsw1vwnfCshbq7zBVKt3uOGC0iMPzn7Qhkn7kRMILqbDQuqeQ95ufKqBuK9jPSVgCIKc3RoU5K1ZXp/JXl///zr7cj55fcbhvtS8e6P8f9LyCp8GULq8y3iNHGovvJRtEv7/vPwHZ9fJpchrmq+d3m5tm8+NyS1vUB+z18vhb3hJzzpme23p8k7ju2HCvRDJk2PEOdzhI7W8DuU4/tSbDQ3+lpTw8gqu4uUVNO9Ief2xWzP8N4ngMLUbsrt7jpsb7XWz17OdpK2fwW0cu9drTvi5iDyULa8RT8mxEz964RhUn8beHpnlfWnxzG9Ou+eH4J4tdqKo73R4uD0Gmqh5x5cX6k+bc010auZd1IScN1+2X2YtX9DefphGt1ZYvR5pzl7aR/+Uy5b3NbtK6bZDpkRnHxUyywtOwVi2n95uJzfTWbfbnc3Gd5PR/dPD8sSfb9ny/iul6E2s2yU9PsqBvKAIJcv7NEyaEYura3lTwao35AVFKFnem+yON+h19a5wdz/kBUUoWV721CreXP+/oej0ywDIC4pQrrwvw3R5g1532H3KeaAK5AWplCvvR1rUsJk6FAcMGyAvKEK58qacjBCmXXiL1ORkyAuKUKq8906CuZtut5euLuQFxShV3kVS1BB0u87nfZaLkBcUoUx5217SSrBNnOccJbMhLyhCmfK+iU97CgIGLddGPMgLilCmvF1BxxsmYDy/5LMQ8oIilCgvk8m7VZeQvOpCXlCMEuV9YbOmw50dzQKFUyAvKEKJ8k75TN6em79oigl5QTFKlFc7jBrC5TRhOnMKkBcUoTx5l519zxtMjtFmyvnuYiAvKEJ58o72m9eCgGGee5h2cAvICwpQnrwf+3MLqdW8PeYMH8gLilCavMZ8t9ffJtdHnuEJeUERSpO37dHdvsrCse4OyAuKUJq892Rb6nFy/KF/kBcUoTR5x0H5Umt+d8pRq5AXFKE0eV1iE298mm2QFxShLHkNx/LYo3ULA3lBEcqSt+/dHFEpjQHygiKUJe+yjLPZIS8owtlOfT8GyAuKAHmBskBeoCyQFygL5AXKAnmBskBeoCyQFygL5AXKAnmBskBeoCyQFygL5AXKAnmBskBeoCyQFygL5AXKAnmBskBeoCyQFygL5AXKAnmBskBeoCyQFygL5AXKAnmBskBeoCyQFygL5AXKAnmBskBeoCyQFygL5AXKAnmBskBeoCyQFygL5AXKAnmBskBeoCyQFygL5AXKAnmBskBeoCyQFygL5AXKAnmBskBeoCyQFygL5AXKAnmBskBeoCyQFygL5AXKAnmBskBeoCyQFygL5AXKAnmBskBeoCyQFygL5AXKIpu8FPKCvEgl71WLxuyFvCANqeQ1v81j9kJekIZc8ppf55AX5EUyec1vrQN7IS9IQzZ5/cjBppAX5EE6ec0rPep7IS9IQz55zd+juBfygjQklDeMHCjkBVnIKK/5t76xF/KCNKSU1/xdD+d7IS9IQ055zb9Xgb2QF6QhqbzmTz9ygLwgFVnlNX/3IC9IR1p5zS86hbwgDXnl9e39hLwgBYnlNf/+gLwgBZnlNeEuSENqeQFIA/ICZYG8QFkgL1AWyAuUBfICZYG8QFkgL1AWyAuUBfICZYG8QFkgL1AWyAuUBfICZYG8QFkgL1CW/wDnfg9jRdBQTwAAAABJRU5ErkJggg==;" parent="1" vertex="1">
          <mxGeometry x="411.5" y="371" width="81" height="34.71" as="geometry" />
        </mxCell>
        <mxCell id="ZNUYGTVJwh82kPwcsdyk-19" value="NEED TO MAKE SOME TRANSFORMATION" style="rounded=0;whiteSpace=wrap;html=1;fillColor=#f8cecc;strokeColor=#b85450;" parent="1" vertex="1">
          <mxGeometry x="563" y="105" width="159" height="278" as="geometry" />
        </mxCell>
        <mxCell id="ZNUYGTVJwh82kPwcsdyk-20" value="CULTIVOS" style="image;aspect=fixed;html=1;points=[];align=center;fontSize=12;image=img/lib/azure2/databases/Azure_Database_PostgreSQL_Server.svg;" parent="1" vertex="1">
          <mxGeometry x="776" y="216" width="48" height="64" as="geometry" />
        </mxCell>
        <mxCell id="ZNUYGTVJwh82kPwcsdyk-22" value="" style="shape=flexArrow;endArrow=classic;html=1;rounded=0;strokeWidth=1;" parent="1" edge="1">
          <mxGeometry width="50" height="50" relative="1" as="geometry">
            <mxPoint x="28" y="583" as="sourcePoint" />
            <mxPoint x="820" y="583" as="targetPoint" />
          </mxGeometry>
        </mxCell>
        <mxCell id="ZNUYGTVJwh82kPwcsdyk-23" value="" style="shape=image;verticalLabelPosition=bottom;labelBackgroundColor=default;verticalAlign=top;aspect=fixed;imageAspect=0;image=data:image/png,iVBORw0KGgoAAAANSUhEUgAAAS0AAACnCAMAAABzYfrWAAAA4VBMVEX///9hXv8aGU0YF0wAADwAAERfXP/y8vUIBkQWFUtRTf9cWf8AADYAAEIAAEBbWP8AADkUE0uQkKE0NFxYVf8AADNTT/8PD0lWUv9OSv9fX3nZ2eG+vsmXl6j6+v8hIFJDQmTGxs9mY//j4+lxbv+wr//Av//z8//Lyv/o6P+Dgf/t7f+vrv+cmv/Ozf9wb4empf/h4f+3tv/Y1/+Ni/+gn/94df+Tkf+Bf//My/+8u/+Ukv9raP+lpbOzs7+EhJcpKFVAQGNmZoBSUW/b2/5GQv8AABt7epAnJlQAACZXVnM2uamoAAANxElEQVR4nO1daUPiSBOWXEBIQkBO0SiiouN4H+POCJ67zs7//0Fv0kd1ddIwuPNq0M4zX6STTjpPqqrrgllZKVCgQIE5iM72dk+vrq5Oz/fPxnkvZqkR7R3d9vu9Vj1Bq9fvbx/t572mZcXFZb9Xd0oYTr3Xv7zIe2FLiHPHrZVUqLm3hYDJ2K/1HCVXRMI6t4V8CRxcu7O5Inz1v0R5L3JZcP73fK4S1DvHeS9zOXDp/pYrIl5XeS90CRDttGRWai23n8Bt1WSR63zJe625Y1zCO6FT79e+7V6cHR4enh2ff2v1JY+idZ33anNGtI3Iclzn9EA6/Hxax3tl6yanZS4JdhBZ7u1fijP2Wj1xSu/y3Ve4RPghbFatszfjpN2+EK/O13dd31JhT+yGnZvZIfTBtiC1r62fOhY2qX8698zLDti2nq5u6pc6kDVLCzmuQApbR++ytqXDPjDgfv/tyUcgXf2D3578GeFwPezMV0MKEMSall7XKTfdtcV8dCDXfX7jlS0hxly1nN5iCeWz/uvY/VS45Jo1089K44gLY//wTVe2hHjmJt7ZWXRKxB2O1u5brmwZsQNWaHF3c5fFQM72Gy5sGbEHVus2c+z5/Ovp7r5C2yIeMermREAmJq1Vh0cttxWj495mnbBvLAbv/d4/+0wA76HkyjJ06gKPTq+WTi5fMGNX0yoVcSjCPkkRx7coO5Pku1JRTsScCMd5z9XmjUvIatUxH1EpXVHsfJMnXjPBczWq+V+IRE0PO1vX9VIaqQjyiJ3RP3vfFeeJW5Hdw/7D116GrPgEafs7Z/aup0/1+ntHSca4oyCrVJNS8VwqW4v6/x8eEa7joC1R7JM1ty/yhJJwAVvn77/ufHCF64fIXIN337m8ONuHKmMLZ+J5vNTSJT1/IFWmOyBbh3ycRdk86pbiSO1k60byEoSe7TOzxfMxYx4U1lEiXje7dSE3PYg9cY+xA9sdd8pw+itz0ifHttzb0AJ/ihMBvTQ/amlljW0eU09XD3/rPOVT1cBZ55oIYTa3+li2bthYXwtfPkp3AIo4kW93To0ywStCUjILznnvhecCSBY7PMgBMw9uWG0nUTNIgOF8A+QgtMjMg/fg3PCIT3hOEGo7ndubbdBYbNBhkhYOxDUnpP98zB0EUEW0WzpQDZMdCK7HWhj5Y85HrEkQFQof4lrVAd5DuVWunXqYrRKXmKTE9YVx40Dp+UDRf+qU0HwucXUdOlB5yabUSir5f4FwQT55r59hy91XzNehiMFDGW6KeA+uUwPLhPvaqMqingdR3F64AvmB8Q2cBhrk7XJvoi78gf2e3OCMzfkPmK9B5zy0MXDRiFqQohH5l/GRixxY3KuVmf+pcQ0mnrfIiCgIZ9/H3yFLIfWTwHwdRAta25BvviMSpDgDw8PpUu9cNV+HLnDRfSVSCmdgpHooF3oBKnermq/Dhgj1nB7qAzzrqXjZUancV0g8a9B2OoYAEQcywpShOpkIp7+o5uvQ0nyZ8h4IlLxE8FWozoFifkeDfpFn5e4vTBniBSpCrSvV/Gz/0ufDTsZ7WEH1Q8zLATjsWGX/S2vchwVPIpfqKLMHFTEU+YhYW+pGVarspwV32iVvU2nKLlTdqKK47WrQnstVzukjl0DJi+gnwSonTNki30L44DigJtpptbDRUZqy8/kqW3+3NeeH5+u+2+u4zin2lPZUvIxB5XANUWnKPjHGx/v7z5JXqTZFoHLY4b/QKveghJIXURFyELXClGn49R4CYYpwu61QOZReVpoyvQC84LQ7VIQclF5GKUMtivkKXKh4UascFLd7uvS3ZQC84NZkyKTWUde3MGWl7GX0AHTp1n+IwTGonNRTozJlWiFS8qJUuWP4AqeW3w5OIHhBRfszUDncgLStyulohQMlL6ByLvp1FjBlOqSX1RC8oBj7WFXRgR/X0CK9rISSF6FyHVVxuqdFu5YK26pK165K5c60Si8roTRFop+khYvToLIapJeVEKYIp91B5TrK4rQO6WUlgJe/kYkX3gNWuZL23gPnxelju32t2iWhuN3SoRFQiRu35jhOzS3hNpl9ZXFaWSnTC9He5e32zqUc8ykd9tf/boseUKqcurhdQHgPNWVxWtf0shpKlYNfX9Q3vayE8qeSIkdVKSugbuE6LdLLSkARtodMPPxuS60w8RigctLPe/OKUL2ka5lHjSvyXxY4dRf768fkt/ljH/a6IEvC87dt1+1sH0mR4OHpbc91a180aIt/NcaHCgkaHx5qG+8UKFCgQIECBQoUKFCgQIECBQoUKFCgQIECczB52CJ42MgeKzeftk5GcyaX6eTV4Zstb8lwX2kQdBuZQ9Fm0G3Y7cHsyWW/m8wN199wgcuEoWcwWBkBufOT8cb97Nnlikmm6sLWSYWz1f2VPtatkgPt2bqoGVtly+RsmWE5ddCnx+aoomZsTQID4Kft/FaXspVmUUAzth4aRKzIM1c3Uwen7XjcDE5mT/8ztsrT9QTT2W9juTBoU7J+EiEK03Z+I7Qs73HO/D9ja/SPFYah9c+cTXep8GIT+/74Qmx9JSNF5eH6PHfrT9ki78rwPghbEbXjwXQYEhmzXqsTWrE1tQhJQXkloLRNXnkBrdh66nJHi7pd8xxRJXRii63Wmq6srIe/X3hE/hEMJxuTxKJJbI2Gk+bG+isefS5bg/WNZnO6RAHoHbHxRpBYK5s8tv2CjzeDbozKKv1kB4EfBHbMWrPixX+G7QizNVn1wsD3Q29zg1i/Mpnc9aUrxrpPRsPpevyHQWOF6mYyJFmBwUvXs3zftjx/bVkIo6utrCV/U1U0A9zS17TNGA3G1mYj/lDtrgy6PpnXeBCyNRwaVoM5udXAnibn3/nJ7KolbaoPXToY02aaPIxIhkxfsFU+adtVfqzibc3dlt8LTPuoGg1D0EpAk8gesFUlcjDitCT+BmOr+yvkT0f48hKBKpMtxLDv0BWpf5eMTVEQQceArUHFlo50PbyovLDW5TtiAupMJAIDULBl3q9yGbI3gC2jYciwErqooktuCfXvDG80h61BO301s50/XSOaq6GKiB8EoGDLMFmoVDUTmeRssadqVPnHcAIRu9+ECzJxSzbhmWyNPFBCuJrRzt14bfhUDNjuzxJdWHFUbJHH8K2u4ScBC2arEjZWDYspkRmO+AvgwrsCMXwSYU3b8abBiQpitFlMv0pDedMOK0Zg0Q9GtZF3LHnfkJ+FZrOqFXHGDLa6/kbiPAwjzJYZniSOwKjJzJodW7VRSIVrQ74lid5Hk+l0g5LnN6eT6WRC/YgJFb+G1RzEW+5wi4mgj61fDmCyVIGgmakiyhqr2equivcMbJkhNy2jLn0LFghX1eZeGr0l7H4qf4vu0917bhBeGF2vDsr+v3isSIoYW1f6LCiFqmTL9NG6ga1A5MYGFkRRTLi4K0VvKbKOCrbo1lytinvwdeZq6Mv0QUxTDN2zxDKsVMmW5EXCnriKBps+CO0JFa4qGefbCmQ6FGzRfbTyMgRM7ZQO5AGeNN182mJ4uqdPboOYKPdEC/uvnC2JwlEI0xhBAREMyqIRAjkKtraY1QsB1I7Jrs27A9ymBoApVRXETcWWXOvgbIWSu02EtGomtDLhIllZuo0gMVSwZWAvF6PayPGLQwNvxqoMlEJVsSVHkoytVGKMCIhZScaYcJHA3UJyRqBgS/LfJNg5mvkXe9aqkIlQstXElwHZkh6FJPtN+ngsFbTK00NmIM5TsLVJr2dm4efHVtmf+Q7jpXpsYSq25MIQsCUlXWhEaRDVYYyEoxGEiAAFWz+p++FbGcypPL01psx2pl8gHeUOkVK2lGxJEjegVp6ZZeoB+JO7bGSlYGuNnG0Nylm8AQ0LglUKzfQLZP7AT3rW4rJVrSAbTJ+YGzhqIRtPq3STeEKzFWxNfDx3OcBsvBmMUu+Ppuf5+heXLcNeg7EJTgStcPIadLOTmi24ciLBZLuClKMZWvkmuO5meXzM+Ffou11ctuKtjvucG5SsapdLG8tp0VGpwBvRIya2enQvMDy4TfnO697nGfZEVcWLJmBPZnrk0ytkKz5gNIeDweSBWcRACMwaNKakmwdYhtQM74aD4UsZrcCw7ieD0WiwfhfEi7CfVvIDS5pWjewhmiXgzvcrZCsJnkPP85nT20BCJIQr3ZjCG3xM2/PCf+mxJnfefS+GResFQY6G7BeVdluRBWFJL7qhvUq2JJhSXoHdL1sMHyIlhfj0SeUKeorOxfcBs6TKylSZrZ/0bC0sW2YgByyp1DAIV5i+4y/EDDhUT+m0apKazy2/1cTykwaWu4Vly1y3sUBU0u0nzHRLmQqCyBDzUO6jXTEwGtZqfgXahl1JECrL+OseKfhV2iu8nmizZ6xWkk+WzFaQDFYqK+XHtk3D8obtPaV3fB4iZu8YPXmM8Ma/wqYN1jx2tXjc9u5zzG0NHk8IHtXb8q81gl+xeEzo38zYPNJxaeVlenLiiYzuVsPELt/fZeWACqzpq9IIw8cgmRfKPdWj5pZPLhc8ND9G4f/VKI8GI9Ur4F7orI1tNBiMFESOZox/cjBnOFyKmvOyI7KzIWKBWWAJD11aef8QtBNYFTkUyID5ppn+8gIqvLAqYmHjF0CZxjH51gM/DFCnSIHfguaAsiFiAQVYz+Gre8v1xFNgJ7D0i2D+A8p3TYL8WyELFCiQN/4HeA47Dk1yaTIAAAAASUVORK5CYII=;" parent="1" vertex="1">
          <mxGeometry x="383" y="592" width="93" height="51.6" as="geometry" />
        </mxCell>
        <mxCell id="ZNUYGTVJwh82kPwcsdyk-30" value="Crear Tabla provincia&lt;br&gt;Relacionarla con Cultivos" style="rounded=0;whiteSpace=wrap;html=1;" parent="1" vertex="1">
          <mxGeometry x="558.5" y="11" width="168" height="60" as="geometry" />
        </mxCell>
        <mxCell id="x2vE9lPkS5IWfM3EVV4i-1" value="NEED TO SAVE CSV FILES AS UTF-8" style="rounded=0;whiteSpace=wrap;html=1;fillColor=#f8cecc;strokeColor=#b85450;" vertex="1" parent="1">
          <mxGeometry x="230" y="322" width="159" height="103" as="geometry" />
        </mxCell>
      </root>
    </mxGraphModel>
  </diagram>
  <diagram name="Cloud" id="6pLh6FNHN2mtUAquhcBg">
    <mxGraphModel dx="1084" dy="1714" grid="0" gridSize="10" guides="1" tooltips="1" connect="1" arrows="1" fold="1" page="1" pageScale="1" pageWidth="850" pageHeight="1100" math="0" shadow="0">
      <root>
        <mxCell id="0" />
        <mxCell id="1" parent="0" />
        <mxCell id="6Tj7AII4krlcqi7IRTv7-17" value="" style="rounded=0;whiteSpace=wrap;html=1;" parent="1" vertex="1">
          <mxGeometry x="296" y="63" width="172" height="174" as="geometry" />
        </mxCell>
        <mxCell id="6Tj7AII4krlcqi7IRTv7-3" style="edgeStyle=orthogonalEdgeStyle;rounded=0;orthogonalLoop=1;jettySize=auto;html=1;" parent="1" source="6Tj7AII4krlcqi7IRTv7-1" target="6Tj7AII4krlcqi7IRTv7-2" edge="1">
          <mxGeometry relative="1" as="geometry">
            <mxPoint x="242" y="148" as="targetPoint" />
          </mxGeometry>
        </mxCell>
        <mxCell id="6Tj7AII4krlcqi7IRTv7-1" value="" style="sketch=0;outlineConnect=0;fontColor=#232F3E;gradientColor=none;fillColor=#ED7100;strokeColor=none;dashed=0;verticalLabelPosition=bottom;verticalAlign=top;align=center;html=1;fontSize=12;fontStyle=0;aspect=fixed;pointerEvents=1;shape=mxgraph.aws4.container_registry_image;" parent="1" vertex="1">
          <mxGeometry x="48" y="120" width="60" height="60" as="geometry" />
        </mxCell>
        <mxCell id="6Tj7AII4krlcqi7IRTv7-18" style="edgeStyle=orthogonalEdgeStyle;rounded=0;orthogonalLoop=1;jettySize=auto;html=1;entryX=0;entryY=0.5;entryDx=0;entryDy=0;" parent="1" source="6Tj7AII4krlcqi7IRTv7-2" target="6Tj7AII4krlcqi7IRTv7-17" edge="1">
          <mxGeometry relative="1" as="geometry" />
        </mxCell>
        <mxCell id="6Tj7AII4krlcqi7IRTv7-2" value="Amazon S3" style="sketch=0;outlineConnect=0;fontColor=#232F3E;gradientColor=none;strokeColor=#ffffff;fillColor=#232F3E;dashed=0;verticalLabelPosition=middle;verticalAlign=bottom;align=center;html=1;whiteSpace=wrap;fontSize=10;fontStyle=1;spacing=3;shape=mxgraph.aws4.productIcon;prIcon=mxgraph.aws4.s3;aspect=fixed;" parent="1" vertex="1">
          <mxGeometry x="172.5" y="103" width="74" height="92.5" as="geometry" />
        </mxCell>
        <mxCell id="6Tj7AII4krlcqi7IRTv7-8" value="https://nasa-gibs.github.io/gibs-api-docs/python-usage/" style="rounded=0;whiteSpace=wrap;html=1;" parent="1" vertex="1">
          <mxGeometry x="34" y="-129" width="351" height="54" as="geometry" />
        </mxCell>
        <mxCell id="6Tj7AII4krlcqi7IRTv7-10" value="Crop Health Assessment&lt;br&gt;Yield Prediction - &lt;b&gt;(Type of crop)&lt;/b&gt;&lt;br&gt;Water Resource Monitoring" style="rounded=0;whiteSpace=wrap;html=1;" parent="1" vertex="1">
          <mxGeometry x="33" y="-202" width="349" height="60" as="geometry" />
        </mxCell>
        <mxCell id="6Tj7AII4krlcqi7IRTv7-12" value="latitude and longitude" style="rounded=0;whiteSpace=wrap;html=1;" parent="1" vertex="1">
          <mxGeometry x="309" y="78.5" width="145" height="33" as="geometry" />
        </mxCell>
        <mxCell id="6Tj7AII4krlcqi7IRTv7-13" value="detect crop" style="rounded=0;whiteSpace=wrap;html=1;" parent="1" vertex="1">
          <mxGeometry x="309" y="116.5" width="145" height="33" as="geometry" />
        </mxCell>
        <mxCell id="6Tj7AII4krlcqi7IRTv7-14" value="detect date" style="rounded=0;whiteSpace=wrap;html=1;" parent="1" vertex="1">
          <mxGeometry x="309.5" y="197" width="145" height="33" as="geometry" />
        </mxCell>
        <mxCell id="6Tj7AII4krlcqi7IRTv7-26" style="edgeStyle=orthogonalEdgeStyle;rounded=0;orthogonalLoop=1;jettySize=auto;html=1;entryX=0.021;entryY=0.457;entryDx=0;entryDy=0;entryPerimeter=0;" parent="1" source="6Tj7AII4krlcqi7IRTv7-15" target="6Tj7AII4krlcqi7IRTv7-37" edge="1">
          <mxGeometry relative="1" as="geometry">
            <mxPoint x="529" y="427" as="targetPoint" />
          </mxGeometry>
        </mxCell>
        <mxCell id="6Tj7AII4krlcqi7IRTv7-15" value="Commodity prices by date" style="rounded=0;whiteSpace=wrap;html=1;align=left;" parent="1" vertex="1">
          <mxGeometry x="54" y="405" width="173" height="43" as="geometry" />
        </mxCell>
        <mxCell id="6Tj7AII4krlcqi7IRTv7-16" value="estimated earn (By country)" style="rounded=0;whiteSpace=wrap;html=1;" parent="1" vertex="1">
          <mxGeometry x="781" y="231.5" width="120" height="33" as="geometry" />
        </mxCell>
        <mxCell id="6Tj7AII4krlcqi7IRTv7-19" value="Country polygons" style="rounded=0;whiteSpace=wrap;html=1;align=left;" parent="1" vertex="1">
          <mxGeometry x="55" y="282" width="174" height="40" as="geometry" />
        </mxCell>
        <mxCell id="6Tj7AII4krlcqi7IRTv7-20" value="harvest estimate" style="rounded=0;whiteSpace=wrap;html=1;" parent="1" vertex="1">
          <mxGeometry x="309.5" y="158" width="145" height="33" as="geometry" />
        </mxCell>
        <mxCell id="6Tj7AII4krlcqi7IRTv7-21" style="edgeStyle=orthogonalEdgeStyle;rounded=0;orthogonalLoop=1;jettySize=auto;html=1;" parent="1" source="6Tj7AII4krlcqi7IRTv7-17" target="6Tj7AII4krlcqi7IRTv7-32" edge="1">
          <mxGeometry relative="1" as="geometry">
            <mxPoint x="538" y="150" as="targetPoint" />
          </mxGeometry>
        </mxCell>
        <mxCell id="6Tj7AII4krlcqi7IRTv7-25" style="edgeStyle=orthogonalEdgeStyle;rounded=0;orthogonalLoop=1;jettySize=auto;html=1;" parent="1" source="6Tj7AII4krlcqi7IRTv7-19" target="6Tj7AII4krlcqi7IRTv7-34" edge="1">
          <mxGeometry relative="1" as="geometry">
            <mxPoint x="534" y="287.5" as="targetPoint" />
          </mxGeometry>
        </mxCell>
        <mxCell id="6Tj7AII4krlcqi7IRTv7-31" style="edgeStyle=orthogonalEdgeStyle;rounded=0;orthogonalLoop=1;jettySize=auto;html=1;entryX=0;entryY=0.5;entryDx=0;entryDy=0;" parent="1" source="6Tj7AII4krlcqi7IRTv7-27" target="6Tj7AII4krlcqi7IRTv7-16" edge="1">
          <mxGeometry relative="1" as="geometry" />
        </mxCell>
        <mxCell id="6Tj7AII4krlcqi7IRTv7-39" style="edgeStyle=orthogonalEdgeStyle;rounded=0;orthogonalLoop=1;jettySize=auto;html=1;entryX=0;entryY=0.5;entryDx=0;entryDy=0;" parent="1" source="6Tj7AII4krlcqi7IRTv7-27" target="6Tj7AII4krlcqi7IRTv7-38" edge="1">
          <mxGeometry relative="1" as="geometry" />
        </mxCell>
        <mxCell id="6Tj7AII4krlcqi7IRTv7-27" value="" style="verticalLabelPosition=bottom;html=1;verticalAlign=top;align=center;strokeColor=#b85450;fillColor=#f8cecc;shape=mxgraph.azure.script_file;pointerEvents=1;" parent="1" vertex="1">
          <mxGeometry x="688" y="223" width="47.5" height="50" as="geometry" />
        </mxCell>
        <mxCell id="6Tj7AII4krlcqi7IRTv7-28" style="edgeStyle=orthogonalEdgeStyle;rounded=0;orthogonalLoop=1;jettySize=auto;html=1;entryX=0;entryY=0.5;entryDx=0;entryDy=0;entryPerimeter=0;exitX=0.953;exitY=0.531;exitDx=0;exitDy=0;exitPerimeter=0;" parent="1" source="6Tj7AII4krlcqi7IRTv7-32" target="6Tj7AII4krlcqi7IRTv7-27" edge="1">
          <mxGeometry relative="1" as="geometry">
            <mxPoint x="591" y="151" as="sourcePoint" />
          </mxGeometry>
        </mxCell>
        <mxCell id="6Tj7AII4krlcqi7IRTv7-29" style="edgeStyle=orthogonalEdgeStyle;rounded=0;orthogonalLoop=1;jettySize=auto;html=1;entryX=0;entryY=0.5;entryDx=0;entryDy=0;entryPerimeter=0;" parent="1" source="6Tj7AII4krlcqi7IRTv7-34" target="6Tj7AII4krlcqi7IRTv7-27" edge="1">
          <mxGeometry relative="1" as="geometry">
            <mxPoint x="594" y="287.5" as="sourcePoint" />
          </mxGeometry>
        </mxCell>
        <mxCell id="6Tj7AII4krlcqi7IRTv7-30" style="edgeStyle=orthogonalEdgeStyle;rounded=0;orthogonalLoop=1;jettySize=auto;html=1;entryX=0;entryY=0.5;entryDx=0;entryDy=0;entryPerimeter=0;" parent="1" source="6Tj7AII4krlcqi7IRTv7-37" target="6Tj7AII4krlcqi7IRTv7-27" edge="1">
          <mxGeometry relative="1" as="geometry">
            <mxPoint x="589" y="427" as="sourcePoint" />
            <Array as="points">
              <mxPoint x="637" y="427" />
              <mxPoint x="637" y="248" />
            </Array>
          </mxGeometry>
        </mxCell>
        <mxCell id="6Tj7AII4krlcqi7IRTv7-32" value="" style="image;sketch=0;aspect=fixed;html=1;points=[];align=center;fontSize=12;image=img/lib/mscae/Azure_Database_for_PostgreSQL_servers.svg;" parent="1" vertex="1">
          <mxGeometry x="538" y="118.25" width="48.26" height="63.5" as="geometry" />
        </mxCell>
        <mxCell id="6Tj7AII4krlcqi7IRTv7-34" value="" style="dashed=0;outlineConnect=0;html=1;align=center;labelPosition=center;verticalLabelPosition=bottom;verticalAlign=top;shape=mxgraph.weblogos.json" parent="1" vertex="1">
          <mxGeometry x="516.26" y="264.1" width="70" height="75.8" as="geometry" />
        </mxCell>
        <mxCell id="6Tj7AII4krlcqi7IRTv7-35" value="Orquestar -&amp;gt; Airflow&lt;br&gt;Docker -&amp;gt; Sí" style="rounded=0;whiteSpace=wrap;html=1;" parent="1" vertex="1">
          <mxGeometry x="33" y="-62" width="352" height="60" as="geometry" />
        </mxCell>
        <mxCell id="6Tj7AII4krlcqi7IRTv7-36" value="TODOS:&lt;br&gt;&lt;ul&gt;&lt;li&gt;&amp;nbsp;dbt (????)&lt;/li&gt;&lt;li&gt;AWS -&amp;gt; LAMBDA&lt;/li&gt;&lt;/ul&gt;" style="rounded=0;whiteSpace=wrap;html=1;align=left;horizontal=1;verticalAlign=top;" parent="1" vertex="1">
          <mxGeometry x="397" y="-202" width="315" height="197" as="geometry" />
        </mxCell>
        <mxCell id="6Tj7AII4krlcqi7IRTv7-37" value="" style="image;sketch=0;aspect=fixed;html=1;points=[];align=center;fontSize=12;image=img/lib/mscae/Azure_Database_for_PostgreSQL_servers.svg;" parent="1" vertex="1">
          <mxGeometry x="535" y="398" width="48.26" height="63.5" as="geometry" />
        </mxCell>
        <mxCell id="6Tj7AII4krlcqi7IRTv7-38" value="estimated earn (By polygon)" style="rounded=0;whiteSpace=wrap;html=1;" parent="1" vertex="1">
          <mxGeometry x="783" y="279" width="120" height="33" as="geometry" />
        </mxCell>
        <mxCell id="6Tj7AII4krlcqi7IRTv7-40" value="" style="rounded=0;whiteSpace=wrap;html=1;fillColor=#f8cecc;strokeColor=#b85450;" parent="1" vertex="1">
          <mxGeometry x="294" y="269" width="176" height="176" as="geometry" />
        </mxCell>
        <mxCell id="6Tj7AII4krlcqi7IRTv7-41" value="" style="shape=image;verticalLabelPosition=bottom;labelBackgroundColor=default;verticalAlign=top;aspect=fixed;imageAspect=0;image=data:image/webp,UklGRnYFAABXRUJQVlA4TGoFAAAvv8AvEKegoG0jJ8cf7b7fT0NpJEnRbP4Z3h2fA4XEsQrbNlKy/7CHz6i2bSNH/eX7/y7tP+UHwPf/8w76NKwbvhwNRVPQMsYe9d5eT3///x9if5MiFmYDE+gPBV84BNk2m7/2foaImACmluCVvmXbrVvbti306xi48Abg/z9XoohCP/WHiP5PgOO2jSQJrjuAyj/Z3Z3pHXv+Ef2fAPpPW2YREeZfi9X6XMsjH4avNbsp/zqsbazIT2ONpvyjaJ957Oz6a2ibkYfHbPozSPcs6l1+ALaVpZfx3WwmwGnXYvME6cY34uYJ1Bvfhlsk2Gh8E+6RgKPzNcwTtNsdZCbwKfi4J/jO4MwTvhsynnnFybDU85KuoFreMxoinnnVyXDU87KuYCwvbFB6XrkDGVn93yI5YMws/1eVnBh4Zvl/6+RkALyy/BhRLi7HnvUTQZTOxXhl/QGSKRfXmgkw2HKWGgmwARRXjkIjEbqAHGVaIiwAaLZsRSwh+sfQpZWQgFAQEVKAPRGOfVmBzueNhJj4NAU5jrOEOPjqEtIOk8AQUkKO4pUQG99DQzqfNBKj/0gROQ7SxNhQk3rOAuG/SsY6piXGgp5sh0iAsAutI+SMmRgTF0dHjiM0MQ40pZ7gIOLSKvUDWmJsXDUpad85iLjkWvwzS4wNXWlfOQi/FmL8I0uMhespJu2bBcK0rU8sMSZulpq0LxaGgbr1gSbGuNVyUvZ1DAN9fZ9jiHujx7dpQmzcX8G6a2DwVxibOCAU7rui4D2WEO0d0vZMCImDIWlu4UQ4OJmSkncYhHwP29ERDI6Wpr7DEcSL+AZJgI2zrSnlnSHwV7F3A0Dh8Iga7xyAnVrR/kqyfuJdUt5ovbFTLkvftHqJt2lvRrnB8ZA13sxycS5lzTderXHe/LHzNH/BWd3/8Nzcx/MzrVbgt3mePrNqJqD2+fasFSvw2xK2Z6PWmIBiGEAS/L6vNhDYfLNUCIilnM9WpYbA4VgwXECuAC9U4Lch8WdRyAXUksazrFvgt6V9FmXGBBRNPPMyCX5fWocwENgiVpUQEMu7ns0iDYFDNBG4gFwVo0ZD4DANAC4gV0YvUeC3pe7PWgkTUFztmVZI8Pty6zMpMBDYZPKMCoSAWHJ6uc6rx8Yfmmy9mec9t87lks83HVeeG7b+xnDFsVx2e6PXsaXXN4zLTxVd8BuasOyQL/2k1w0WDjdfe6eo5pAvv76juMrwBW2coPpMLP/c0W4yAtoOBVVHcgXqDopr2AoM2jow5YlSMPYopjjgq1D3kF+iFThtbpD8nq/Ctksg2b2WILtoIsLtWIWTthuguTcSbB8HvlyFwfto4Ok7NhIGfSjwaiXKFzTg1A1fiYM+FXClQb6hgSav+Uoc9LGgiWutQb6iCSxW4qTPFYxfGg36HQ0sdiVX4qADOaDgoo2E4BPIkMyVWolGZy5IthIXHapA+kJp0FNoAPKVOOhYDhj1qyUEn0MGJ1ai0ckdRf4YCZ3OXiDiW67CRYdLILFREHIaGQb/kqvQ6PwBwT5sFQ6quBDgsxQsKikOwlegSw2SKDcfLSCEqmpUawCx/KFUVxGMAKXKVqyAXH6j2o1u+BpV76X++eOfLN+pfqv0959ZvhFCq/RvOSOMGnWyeCih1Kjy/2KhhFO8SHEXQirzPlMIbL9NJ7waNwklxDLvMYVA91t0wq1+A1dCzj3QRWcCLxPbFLqgOS43uiN3VJ3pmjICTwyhq0oPLNGFrss9cERnujI3x+CN6d46oloMpcuzzUrTmH5BaavGakK/I1tfZ61uTD8n2/AzfBjTz8pqbazYFWs0U6ZfWNSstT7GnHOO0VszU6H/JgQ=;" parent="1" vertex="1">
          <mxGeometry x="690.25" y="284" width="43" height="43" as="geometry" />
        </mxCell>
      </root>
    </mxGraphModel>
  </diagram>
</mxfile>
